<svg width="34" height="34" viewBox="0 0 34 34" fill="none" xmlns="http://www.w3.org/2000/svg">
<path d="M2.04004 17C2.04004 25.2607 8.7394 31.96 17 31.96C25.2607 31.96 31.96 25.2607 31.96 17C31.96 8.7394 25.2607 2.04004 17 2.04004C8.7394 2.04004 2.04004 8.7394 2.04004 17Z" stroke="white" stroke-width="1.36"/>
<path d="M2.03931 19.3636C2.85463 19.165 5.11835 18.7053 8.63599 18.7053M25.84 17.4453C28.9068 17.2535 30.9944 17.4337 31.96 17.5561L25.84 17.4453ZM25.4327 18.7128C28.9476 18.7128 31.2113 19.1718 32.028 19.3704L25.4327 18.7128ZM2.03999 17.5452C3.00559 17.4222 5.09319 17.2426 8.15999 17.4344L2.03999 17.5452Z" stroke="white" stroke-width="0.68" stroke-linecap="round" stroke-linejoin="round"/>
<path d="M12.92 26.5199C12.92 26.5199 10.88 26.5199 10.472 26.5199C9.45196 26.5199 8.56796 26.1119 8.15996 25.2959C7.68396 24.4119 7.47996 22.9159 6.25596 22.0999C6.05196 21.9639 6.18796 21.7599 6.59596 21.7599C7.00396 21.8279 7.88796 22.3719 8.43196 23.1199C9.04396 23.8679 9.65596 24.4799 10.744 24.4799C11.832 24.4799 13.328 24.5479 13.804 24.0039M24.684 12.6479C25.024 11.5599 25.568 9.11191 24.548 8.15991C22.712 8.15991 21.42 9.04391 20.808 9.58791C19.72 9.11191 18.428 8.83991 17 8.83991C15.572 8.83991 14.28 9.11191 13.124 9.58791C12.512 9.04391 11.22 8.15991 9.38396 8.15991C8.43196 9.04391 8.90796 11.4919 9.24796 12.6479C8.49996 13.6679 8.09196 14.8919 8.09196 16.0479C8.09196 19.7879 10.948 22.4399 16.932 22.4399C22.916 22.4399 25.772 19.7879 25.772 16.0479C25.84 14.8239 25.432 13.6679 24.684 12.6479Z" stroke="white" stroke-width="1.36"/>
<path d="M21.08 31.0761V26.9281C21.08 25.0921 19.788 22.5081 18.02 22.5081H16.116C14.348 22.5081 12.92 25.0921 12.92 26.9281V31.2801" stroke="white" stroke-width="1.36"/>
</svg>
