<svg width="40" height="40" viewBox="0 0 40 40" fill="none" xmlns="http://www.w3.org/2000/svg">
<path d="M7.2 36H32.8C34.5672 36 36 34.5672 36 32.8V7.2C36 5.4328 34.5672 4 32.8 4H7.2C5.4328 4 4 5.4328 4 7.2V32.8C4 34.5672 5.4328 36 7.2 36Z" stroke="white" stroke-width="1.6" stroke-linecap="round" stroke-linejoin="round"/>
<path d="M8.80005 16H13.6V26.508V31.2H8.80005V16Z" stroke="white" stroke-width="1.6" stroke-linecap="round" stroke-linejoin="round"/>
<path d="M11.2 13.6001C9.76005 13.6001 8.80005 12.6937 8.80005 11.5737C8.80005 10.4537 9.76005 9.6001 11.2 9.6001C12.64 9.6001 13.54 10.4537 13.6 11.5737C13.6 12.6937 12.7 13.6001 11.2 13.6001Z" stroke="white" stroke-width="1.5808" stroke-linecap="round" stroke-linejoin="round"/>
<path d="M31.2 31.2H26.4C26.4 31.2 26.4 23.7944 26.4 23.2C26.4 21.6 25.6 20 23.6 19.9656C21.6176 19.9304 20.8 21.6 20.8 23.2C20.8 23.9272 20.8 31.2 20.8 31.2H16V16H20.8V18.0488C20.8 18.0488 22.344 16 25.4504 16C28.6224 16 31.2 18.1808 31.2 22.6088V31.2Z" stroke="white" stroke-width="1.6" stroke-linecap="round" stroke-linejoin="round"/>
</svg>
