<svg width="43" height="43" viewBox="0 0 43 43" fill="none" xmlns="http://www.w3.org/2000/svg">
<path d="M25.2693 29.0352C25.2693 29.0352 28.2975 27.3018 29.0898 26.8848C29.8804 26.4668 30.6992 26.3608 31.1966 26.6651C31.9496 27.1258 38.2736 31.3326 38.8061 31.7053C39.3385 32.0788 39.595 33.1446 38.8625 34.1882C38.1334 35.2326 34.7693 39.3608 33.3437 39.3164C31.9163 39.2702 25.9804 39.1395 14.7872 27.9437C3.59746 16.7506 3.46498 10.8129 3.41883 9.38558C3.37353 7.95823 7.50174 4.59412 8.54533 3.86421C9.59063 3.13515 10.6582 3.40951 11.0291 3.92233C11.4505 4.50609 15.6086 10.8104 16.0667 11.5326C16.3804 12.0266 16.265 12.8497 15.8471 13.6411C15.4317 14.4343 13.6975 17.4617 13.6975 17.4617C13.6975 17.4617 14.9197 19.5463 19.0522 23.6779C23.1855 27.8104 25.2693 29.0352 25.2693 29.0352Z" stroke="white" stroke-width="1.7094"/>
</svg>
