<svg width="589" height="432" viewBox="0 0 589 432" fill="none" xmlns="http://www.w3.org/2000/svg">
<path d="M25.112 279.56V239.816L116.12 109.64H171.128V236.936H194.744V279.56H171.128V317H121.88V279.56H25.112ZM125.336 163.784L76.952 236.936H125.336V163.784ZM218.866 209C218.866 175.976 225.202 149.96 237.874 130.952C250.738 111.944 271.378 102.44 299.794 102.44C328.21 102.44 348.754 111.944 361.426 130.952C374.29 149.96 380.722 175.976 380.722 209C380.722 242.408 374.29 268.616 361.426 287.624C348.754 306.632 328.21 316.136 299.794 316.136C271.378 316.136 250.738 306.632 237.874 287.624C225.202 268.616 218.866 242.408 218.866 209ZM332.338 209C332.338 189.608 330.226 174.728 326.002 164.36C321.778 153.8 313.042 148.52 299.794 148.52C286.546 148.52 277.81 153.8 273.586 164.36C269.362 174.728 267.25 189.608 267.25 209C267.25 222.056 268.018 232.904 269.554 241.544C271.09 249.992 274.162 256.904 278.77 262.28C283.57 267.464 290.578 270.056 299.794 270.056C309.01 270.056 315.922 267.464 320.53 262.28C325.33 256.904 328.498 249.992 330.034 241.544C331.57 232.904 332.338 222.056 332.338 209ZM407.893 279.56V239.816L498.901 109.64H553.909V236.936H577.525V279.56H553.909V317H504.661V279.56H407.893ZM508.117 163.784L459.733 236.936H508.117V163.784Z" fill="#27C499"/>
<path d="M14.112 279.56V239.816L105.12 109.64H160.128V236.936H183.744V279.56H160.128V317H110.88V279.56H14.112ZM114.336 163.784L65.952 236.936H114.336V163.784ZM207.866 209C207.866 175.976 214.202 149.96 226.874 130.952C239.738 111.944 260.378 102.44 288.794 102.44C317.21 102.44 337.754 111.944 350.426 130.952C363.29 149.96 369.722 175.976 369.722 209C369.722 242.408 363.29 268.616 350.426 287.624C337.754 306.632 317.21 316.136 288.794 316.136C260.378 316.136 239.738 306.632 226.874 287.624C214.202 268.616 207.866 242.408 207.866 209ZM321.338 209C321.338 189.608 319.226 174.728 315.002 164.36C310.778 153.8 302.042 148.52 288.794 148.52C275.546 148.52 266.81 153.8 262.586 164.36C258.362 174.728 256.25 189.608 256.25 209C256.25 222.056 257.018 232.904 258.554 241.544C260.09 249.992 263.162 256.904 267.77 262.28C272.57 267.464 279.578 270.056 288.794 270.056C298.01 270.056 304.922 267.464 309.53 262.28C314.33 256.904 317.498 249.992 319.034 241.544C320.57 232.904 321.338 222.056 321.338 209ZM396.893 279.56V239.816L487.901 109.64H542.909V236.936H566.525V279.56H542.909V317H493.661V279.56H396.893ZM497.117 163.784L448.733 236.936H497.117V163.784Z" fill="#BCBCBC" fill-opacity="0.6"/>
</svg>
