<svg width="36" height="36" viewBox="0 0 36 36" fill="none" xmlns="http://www.w3.org/2000/svg">
<path d="M27.75 21.75H10.1348V18.75H24.75V11.25H27.75V21.75Z" fill="#6C19FF"/>
<path d="M26.25 14.25C28.7353 14.25 30.75 12.2353 30.75 9.75C30.75 7.26472 28.7353 5.25 26.25 5.25C23.7647 5.25 21.75 7.26472 21.75 9.75C21.75 12.2353 23.7647 14.25 26.25 14.25Z" fill="#3DD9EB"/>
<path d="M11.25 9H8.25V27H11.25V9Z" fill="#6C19FF"/>
<path d="M9.75 33C12.2353 33 14.25 30.9853 14.25 28.5C14.25 26.0147 12.2353 24 9.75 24C7.26472 24 5.25 26.0147 5.25 28.5C5.25 30.9853 7.26472 33 9.75 33Z" fill="#3DD9EB"/>
<path d="M9.75 12C12.2353 12 14.25 9.98528 14.25 7.5C14.25 5.01472 12.2353 3 9.75 3C7.26472 3 5.25 5.01472 5.25 7.5C5.25 9.98528 7.26472 12 9.75 12Z" fill="#3DD9EB"/>
<path d="M8.25 11.7383C8.7195 11.9048 9.2235 12 9.75 12C10.2765 12 10.7805 11.9048 11.25 11.7383V9H8.25V11.7383Z" fill="#00B3D7"/>
<path d="M11.25 24.2617C10.7805 24.0952 10.2765 24 9.75 24C9.2235 24 8.7195 24.0952 8.25 24.2617V27H11.25V24.2617Z" fill="#00B3D7"/>
<path d="M24.75 13.9882C25.2195 14.1547 25.7235 14.25 26.25 14.25C26.7765 14.25 27.2805 14.1547 27.75 13.9882V11.25H24.75V13.9882Z" fill="#00B3D7"/>
</svg>
