<svg width="36" height="36" viewBox="0 0 36 36" fill="none" xmlns="http://www.w3.org/2000/svg">
<path d="M3.38086 32.6198L5.04286 26.7158L9.28486 30.9586L3.38086 32.6198Z" fill="#3DDAB4"/>
<path d="M8.98387 3.68147L3.68066 8.98486L27.0156 32.319L32.3188 27.0156L8.98387 3.68147Z" fill="#6C19FF"/>
<path d="M30.4974 9.74467L26.2549 5.50195L5.04131 26.7148L9.28388 30.9575L30.4974 9.74467Z" fill="#3DDAB4"/>
<path d="M11.1054 5.80266L8.98438 7.92432L11.106 10.0453L13.227 7.92365L11.1054 5.80266Z" fill="#2100C4"/>
<path d="M15.3488 10.0451L13.2275 12.1665L15.3489 14.2878L17.4702 12.1664L15.3488 10.0451Z" fill="#2100C4"/>
<path d="M23.8334 18.5316L21.7119 20.6538L23.8336 22.7748L25.9551 20.6526L23.8334 18.5316Z" fill="#2100C4"/>
<path d="M28.0764 22.7737L25.9551 24.895L28.0764 27.0163L30.1977 24.8949L28.0764 22.7737Z" fill="#2100C4"/>
<path d="M18.5298 13.2274L13.2266 18.5308L17.4693 22.7733L22.7725 17.4699L18.5298 13.2274Z" fill="#00B569"/>
<path d="M32.6195 7.6226L28.377 3.37988L24.6646 7.09213L28.9071 11.3348L32.6195 7.6226Z" fill="#F5BC00"/>
<path d="M4.13611 29.9365L3.38086 32.62L6.06436 31.8648L4.13611 29.9365Z" fill="#00B569"/>
</svg>
