<svg width="20" height="20" viewBox="0 0 20 20" fill="none" xmlns="http://www.w3.org/2000/svg">
<path d="M11.134 2.47412V3.71124H15.2078L7.4516 11.4722L8.32145 12.3421L16.0825 4.58593V8.65973H17.3196V2.47412H11.134ZM4.94836 4.94836C3.58076 4.94836 2.47412 6.05501 2.47412 7.42261V14.8453C2.47412 16.2129 3.58076 17.3196 4.94836 17.3196H12.3711C13.7387 17.3196 14.8453 16.2129 14.8453 14.8453V8.65973L13.6082 9.89685V14.8453C13.6082 15.5267 13.0525 16.0825 12.3711 16.0825H4.94836C4.26698 16.0825 3.71124 15.5267 3.71124 14.8453V7.42261C3.71124 6.74122 4.26698 6.18549 4.94836 6.18549H9.89685L11.134 4.94836H4.94836Z" fill="#27C499"/>
</svg>
