<svg width="35" height="35" viewBox="0 0 35 35" fill="none" xmlns="http://www.w3.org/2000/svg">
<g clip-path="url(#clip0_736_1035)">
<path d="M17.6799 0.714844C8.26977 0.714844 0.637695 8.3455 0.637695 17.7571C0.637695 25.2869 5.52029 31.6749 12.2931 33.9287C13.1438 34.0863 13.4194 33.558 13.4194 33.1093V29.9366C8.67878 30.9676 7.69175 27.9256 7.69175 27.9256C6.91633 25.9558 5.79865 25.4317 5.79865 25.4317C4.25206 24.3737 5.91652 24.3964 5.91652 24.3964C7.62784 24.5157 8.52824 26.1532 8.52824 26.1532C10.0478 28.7578 12.5147 28.0051 13.4875 27.5691C13.6395 26.4685 14.0812 25.7158 14.5697 25.2911C10.7849 24.858 6.80556 23.3966 6.80556 16.868C6.80556 15.0062 7.47162 13.4866 8.5609 12.2936C8.3848 11.8633 7.80111 10.1292 8.72707 7.7831C8.72707 7.7831 10.1586 7.3258 13.4151 9.52993C14.7742 9.15216 16.2313 8.96328 17.6799 8.95617C19.1285 8.96328 20.587 9.15216 21.949 9.52993C25.2026 7.3258 26.6313 7.7831 26.6313 7.7831C27.5587 10.1307 26.975 11.8647 26.7989 12.2936C27.8925 13.4866 28.5528 15.0076 28.5528 16.868C28.5528 23.4137 24.5664 24.8551 20.7717 25.2769C21.3823 25.8052 21.9405 26.842 21.9405 28.4326V33.1093C21.9405 33.5623 22.2131 34.0949 23.078 33.9273C29.8452 31.6706 34.7221 25.284 34.7221 17.7571C34.7221 8.3455 27.0915 0.714844 17.6799 0.714844Z" fill="#090b2b"/>
</g>
<defs>
<clipPath id="clip0_736_1035">
<rect width="34.0844" height="34.0844" fill="white" transform="translate(0.637695 0.714844)"/>
</clipPath>
</defs>
</svg>
