<?xml version="1.0" encoding="UTF-8"?>
<svg xmlns="http://www.w3.org/2000/svg" xmlns:xlink="http://www.w3.org/1999/xlink" viewBox="0 0 50 50" width="50px" height="50px">
<g id="surface72666894">
<path style=" stroke:none;fill-rule:nonzero;fill:rgb(100%,100%,100%);fill-opacity:1;" d="M 3 9 C 2.640625 8.996094 2.304688 9.183594 2.121094 9.496094 C 1.941406 9.808594 1.941406 10.191406 2.121094 10.503906 C 2.304688 10.816406 2.640625 11.003906 3 11 L 47 11 C 47.359375 11.003906 47.695312 10.816406 47.878906 10.503906 C 48.058594 10.191406 48.058594 9.808594 47.878906 9.496094 C 47.695312 9.183594 47.359375 8.996094 47 9 Z M 3 24 C 2.640625 23.996094 2.304688 24.183594 2.121094 24.496094 C 1.941406 24.808594 1.941406 25.191406 2.121094 25.503906 C 2.304688 25.816406 2.640625 26.003906 3 26 L 47 26 C 47.359375 26.003906 47.695312 25.816406 47.878906 25.503906 C 48.058594 25.191406 48.058594 24.808594 47.878906 24.496094 C 47.695312 24.183594 47.359375 23.996094 47 24 Z M 3 39 C 2.640625 38.996094 2.304688 39.183594 2.121094 39.496094 C 1.941406 39.808594 1.941406 40.191406 2.121094 40.503906 C 2.304688 40.816406 2.640625 41.003906 3 41 L 47 41 C 47.359375 41.003906 47.695312 40.816406 47.878906 40.503906 C 48.058594 40.191406 48.058594 39.808594 47.878906 39.496094 C 47.695312 39.183594 47.359375 38.996094 47 39 Z M 3 39 "/>
</g>
</svg>
