<svg width="34" height="34" viewBox="0 0 34 34" fill="none" xmlns="http://www.w3.org/2000/svg">
<path fill-rule="evenodd" clip-rule="evenodd" d="M18.4116 15.2694V15.2202C18.4015 15.2367 18.3876 15.2532 18.3789 15.2694H18.4116Z" fill="#AEACFF"/>
<path fill-rule="evenodd" clip-rule="evenodd" d="M0 0V34H34V0H0ZM10.5753 28.2463H5.53087V13.0699H10.5753V28.2463ZM8.05307 10.9985H8.01974C6.32759 10.9985 5.23077 9.83273 5.23077 8.37558C5.23077 6.88646 6.35964 5.7537 8.0861 5.7537C9.81292 5.7537 10.8741 6.88646 10.9071 8.37558C10.9071 9.83273 9.81292 10.9985 8.05307 10.9985ZM28.7692 28.2463H23.7235V20.1269C23.7235 18.0876 22.9945 16.6955 21.1683 16.6955C19.7736 16.6955 18.9448 17.6328 18.5797 18.5407C18.447 18.865 18.4123 19.3158 18.4123 19.7706V28.2464H13.3656C13.3656 28.2464 13.4332 14.4937 13.3656 13.07H18.4123V15.2205C19.0828 14.1888 20.2794 12.7137 22.9598 12.7137C26.2804 12.7137 28.7692 14.8822 28.7692 19.5434V28.2463Z" fill="#AEACFF"/>
</svg>
