<svg width="512" height="512" viewBox="0 0 512 512" fill="none" xmlns="http://www.w3.org/2000/svg">
<path d="M234.443 512H78.3742H70.9543C41.4833 512 24.4981 478.523 41.9024 454.74L187.339 256L363.891 14.74C370.671 5.47546 381.463 0 392.943 0H476C495.882 0 512 16.1178 512 36V155.959V333.98V476C512 495.882 495.882 512 476 512H413.753H351.506C331.624 512 315.506 495.882 315.506 476V425.826L263.546 497.19C256.77 506.496 245.953 512 234.443 512Z" fill="url(#paint0_linear_903_9)"/>
<path d="M512 154.867L315.283 425.72V476C315.283 495.882 331.401 512 351.283 512H413.53H475.777C495.659 512 511.777 495.882 511.777 476V299.904L512 154.867Z" fill="url(#paint1_linear_903_9)"/>
<defs>
<linearGradient id="paint0_linear_903_9" x1="501.952" y1="4.06951e-08" x2="170.326" y2="518.682" gradientUnits="userSpaceOnUse">
<stop stop-color="#6C68FD"/>
<stop offset="1" stop-color="#4C48EF"/>
</linearGradient>
<linearGradient id="paint1_linear_903_9" x1="413.53" y1="243.55" x2="413.53" y2="512" gradientUnits="userSpaceOnUse">
<stop stop-color="#2F23B5"/>
<stop offset="1" stop-color="#3B2FC9"/>
</linearGradient>
</defs>
</svg>
