<svg width="29" height="29" viewBox="0 0 29 29" fill="none" xmlns="http://www.w3.org/2000/svg">
<path d="M28.1203 17.1022L19.3052 2.88045C18.7763 1.90099 17.1073 -0.046178 14.6625 0.000836208H14.3375C11.8927 -0.046178 10.2237 1.90099 9.69481 2.88045L0.879655 17.1022C0.154854 18.3364 -0.884269 21.7274 1.37918 25.0065C3.67112 28.3269 7.61835 28.7382 9.40097 28.5032C14.8061 27.9397 16.4341 23.3515 16.5725 21.1278C16.5743 21.0411 16.5761 20.9567 16.5777 20.8743C16.5863 20.3924 16.5919 20.0104 16.5952 19.7174C16.6062 18.5641 16.5871 18.1011 16.5725 18.0131C16.4452 17.4157 15.8496 16.2207 14.4862 16.2207C13.4757 16.2207 12.8548 16.8771 12.5372 17.4602C12.3471 17.8092 12.3118 18.2144 12.3118 18.6119V20.6577C12.302 21.7841 11.5361 24.1132 8.5507 24.4188C4.81895 24.8008 3.67298 20.7165 4.64265 19.071C5.41838 17.7546 10.823 9.1588 13.4284 5.02547C13.7712 4.428 14.6684 3.59154 15.5147 5.02547C16.3609 6.45941 21.5286 14.5556 24.0066 18.4245C24.4865 19.1493 25.182 20.9633 24.1241 22.4207C23.4421 23.5252 21.5703 24.8259 19.541 24.2461C18.4751 23.9415 17.1154 24.175 16.703 25.204V25.204C16.6317 25.3818 16.594 25.5712 16.5918 25.7627L16.5895 25.9594C16.579 26.8732 17.0307 27.7654 17.8661 28.136C18.6463 28.4821 19.0554 28.4688 19.599 28.5032C21.3816 28.7382 25.3289 28.3269 27.6208 25.0065C29.8843 21.7274 28.8451 18.3364 28.1203 17.1022Z" fill="url(#paint0_angular)"/>
<defs>
<radialGradient id="paint0_angular" cx="0" cy="0" r="1" gradientUnits="userSpaceOnUse" gradientTransform="translate(18.3649 18.3943) rotate(114.775) scale(10.9385 11.1079)">
<stop stop-color="white"/>
<stop offset="1" stop-color="#E9E9E9"/>
</radialGradient>
</defs>
</svg>
